<svg id="Layer_1" data-name="Layer 1" xmlns="http://www.w3.org/2000/svg" viewBox="0 0 424.2 494.4"><defs><style>.cls-1{fill:#7d4eec;}.cls-2{fill:#512ca9;}.cls-3{fill:#fa0;}.cls-4{fill:#ffbc00;}.cls-5{fill:#fff200;}.cls-6{fill:#ffda00;}</style></defs><title>icon</title><circle class="cls-1" cx="212" cy="248" r="212"/><path class="cls-2" d="M97.5,98.4c82.4-82.4,216.8-82.4,300,0,82.4,82.4,82.4,216.8,0,300" transform="translate(-35.1)"/><polygon class="cls-3" points="416.8 0 173.6 0 30.4 216 126.4 216 7.2 494.4 405.6 136 308 136 416.8 0"/><polygon class="cls-4" points="416.8 0 224.8 144.8 30.4 216 187.2 216 7.2 494.4 405.6 136 308 136 416.8 0"/><polygon class="cls-5" points="311.2 0 173.6 0 30.4 216 248.8 216 7.2 494.4 405.6 136 192 136 311.2 0"/><polygon class="cls-6" points="311.2 0 203.2 19.2 30.4 216 248.8 216 7.2 494.4 405.6 136 161.6 175.2 311.2 0"/></svg>